M48
;DRILL file {KiCad 4.0.4-stable} date 02/13/18 14:57:53
;FORMAT={-:-/ absolute / inch / decimal}
FMAT,2
INCH,TZ
T1C0.012
T2C0.014
T3C0.016
T4C0.025
T5C0.028
T6C0.039
T7C0.040
T8C0.043
T9C0.063
T10C0.071
T11C0.073
T12C0.079
T13C0.125
%
G90
G05
M72
T1
X0.8783Y-3.8824
X0.9209Y-4.4198
X0.9366Y-4.9391
X0.9835Y-2.9352
X1.0012Y-1.0537
X1.002Y-1.1868
X1.0157Y-3.2714
X1.0803Y-1.321
X1.087Y-3.8856
X1.089Y-0.9506
X1.0902Y-1.1364
X1.2736Y-3.9305
X1.2906Y-4.8049
X1.4819Y-4.9435
X1.5906Y-3.3903
X1.713Y-4.8069
X1.7213Y-3.9852
X1.8701Y-1.4025
X1.8756Y-4.2569
X1.878Y-3.7224
X1.902Y-1.8612
X1.9398Y-4.9435
X2.1307Y-3.9777
X2.1807Y-3.7217
X2.2061Y-4.4676
X2.236Y-1.6758
X2.2394Y-2.8198
X2.2424Y-1.7878
X2.2441Y-2.9852
X2.25Y-2.6431
X2.25Y-4.838
X2.3189Y-2.5246
X2.3606Y-4.0238
X2.3761Y-3.7476
X2.4016Y-2.7088
X2.4197Y-2.9895
X2.4209Y-2.5502
X2.433Y-0.8698
X2.4461Y-3.6076
X2.4791Y-2.1398
X2.4921Y-4.3811
X2.4945Y-3.9417
X2.5083Y-4.1228
X2.5193Y-3.1919
X2.5201Y-2.9226
X2.5209Y-2.9872
X2.5256Y-2.548
X2.576Y-2.8754
X2.6087Y-3.6201
X2.613Y-4.9411
X2.6146Y-1.3112
X2.6327Y-2.7025
X2.6531Y-2.3202
X2.6642Y-2.8793
X2.7035Y-1.5651
X2.7469Y-2.8769
X2.7561Y-4.2176
X2.7622Y-2.3929
X2.7661Y-2.9797
X2.7945Y-2.51
X2.8071Y-4.8313
X2.828Y-2.5498
X2.8409Y-2.8702
X2.8535Y-2.7935
X2.8661Y-2.9446
X2.9252Y-3.6943
X2.9402Y-3.8383
X2.9941Y-4.3157
X2.9984Y-4.0112
X3.022Y-2.7832
X3.0276Y-2.6383
X3.0378Y-2.1512
X3.0634Y-1.6151
X3.1126Y-2.7525
X3.1224Y-3.8769
X3.1449Y-2.6785
X3.1602Y-2.2858
X3.1614Y-4.9478
X3.1756Y-0.9525
X3.1835Y-1.2799
X3.2054Y-2.1927
X3.2224Y-2.3638
X3.2591Y-2.3701
X3.2602Y-2.895
X3.2744Y-2.272
X3.2878Y-4.4394
X3.2882Y-3.9013
X3.2969Y-2.6675
X3.2988Y-1.5858
X3.3Y-0.86
X3.3283Y-2.2717
X3.3454Y-2.8027
X3.3554Y-4.3827
X3.3945Y-4.838
X3.4701Y-0.9061
X3.5524Y-1.274
X3.5748Y-3.6209
X3.6201Y-3.8466
X3.627Y-1.012
X3.6291Y-4.0147
X3.6339Y-4.2378
X3.6441Y-1.7403
X3.65Y-1.93
X3.6862Y-4.1291
X3.7311Y-4.463
X3.76Y-1.58
X3.7642Y-2.6694
X3.7754Y-1.5027
X3.7756Y-2.4084
X3.7783Y-2.571
X3.7819Y-4.5576
X3.7819Y-4.9502
X3.79Y-1.92
X3.8079Y-2.6191
X3.81Y-1.42
X3.815Y-2.1933
X3.8244Y-0.8516
X3.8254Y-1.1527
X3.8295Y-1.6726
X3.8421Y-2.5702
X3.8472Y-2.4057
X3.8634Y-4.7805
X3.8646Y-1.6647
X3.8776Y-4.3009
X3.8831Y-4.4545
X3.9398Y-4.4635
X3.977Y-0.8525
X3.98Y-1.944
X3.9854Y-1.5227
X3.9945Y-3.313
X3.9976Y-3.0323
X4.024Y-4.2978
X4.0386Y-4.1092
X4.0393Y-4.1907
X4.0913Y-3.5409
X4.1067Y-4.3289
X4.118Y-4.112
X4.118Y-4.1907
X4.1185Y-4.3572
X4.1256Y-4.297
X4.1339Y-4.9454
X4.1378Y-4.4698
X4.1732Y-2.7413
X4.1921Y-1.2134
X4.2102Y-4.2265
X4.2138Y-2.8402
X4.215Y-4.3872
X4.2209Y-2.0506
X4.2547Y-3.8876
X4.2547Y-4.1041
X4.2638Y-3.697
X4.2642Y-4.6096
X4.278Y-2.6713
X4.278Y-3.5289
X4.2906Y-4.3112
X4.3043Y-3.3561
X4.328Y-2.8218
X4.3535Y-1.6965
X4.4079Y-3.3966
X4.4106Y-3.9368
X4.411Y-3.7557
X4.4118Y-3.5773
X4.4118Y-4.3049
X4.5169Y-4.1198
X4.5311Y-3.2543
X4.5433Y-2.8679
X4.5913Y-2.175
X4.6217Y-2.3624
X4.674Y-2.7734
X4.6858Y-1.836
X4.6985Y-1.2815
X4.7087Y-2.6383
T2
X2.9311Y-3.4996
X2.9744Y-3.4996
T3
X1.2102Y-4.4628
X1.2835Y-4.3498
X1.3567Y-1.1183
X1.389Y-4.51
X1.3909Y-1.2606
X1.6602Y-1.2063
X1.6933Y-4.372
X1.6953Y-4.4642
X1.9346Y-2.772
X2.0185Y-2.6921
X2.1306Y-1.6266
X2.2445Y-1.7319
X2.2584Y-1.5186
X2.3709Y-4.3484
X2.3803Y-4.4382
X2.4878Y-2.8291
X2.5213Y-2.6925
X2.6677Y-4.712
X2.7165Y-3.8943
X2.7197Y-4.5484
X2.7209Y-3.9919
X2.7366Y-4.0677
X2.7554Y-3.7127
X2.7563Y-4.008
X2.789Y-4.3201
X2.8811Y-3.9025
X2.8854Y-3.7027
X2.8854Y-4.0327
X2.8874Y-3.8313
X2.8954Y-4.3827
X2.8996Y-3.8687
X2.9Y-3.5472
X2.9177Y-4.1102
X2.9831Y-3.7628
X3.0016Y-3.552
X3.0264Y-3.772
X3.0465Y-4.2677
X3.1555Y-3.6906
X3.1634Y-4.2626
X3.1654Y-3.763
X3.172Y-4.4693
X3.1772Y-3.8146
X3.1886Y-4.285
X3.1957Y-3.6937
X3.1992Y-3.7697
X3.2189Y-4.0583
X3.2201Y-4.0933
X3.2295Y-4.428
X3.2319Y-3.8504
X3.2516Y-3.8161
X3.2555Y-3.6911
X3.2638Y-4.2406
X3.2815Y-3.9817
X3.2937Y-4.2882
X3.3024Y-2.9809
X3.3787Y-2.2033
X3.4157Y-3.8315
X3.4283Y-3.6992
X3.4319Y-3.9293
X3.4323Y-3.7902
X3.4354Y-3.9627
X3.4366Y-3.882
X3.4394Y-3.9957
X3.4409Y-4.0303
X3.5154Y-3.9627
X3.5154Y-4.1427
X3.6256Y-0.9098
X3.7169Y-2.388
X3.7425Y-2.3584
X3.8554Y-3.1027
X3.8754Y-2.6927
X3.8854Y-3.2127
X3.8954Y-2.4027
X3.9154Y-2.6927
X3.9354Y-2.4127
X3.9709Y-1.5823
X4.1138Y-1.832
X4.1303Y-1.328
X4.189Y-1.2824
X4.1909Y-2.4419
X4.2054Y-1.5827
X4.2232Y-1.0976
X4.2583Y-2.7768
X4.2598Y-2.7024
X4.2654Y-1.4727
X4.365Y-1.4694
T4
X1.0307Y-4.3565
X1.0713Y-3.7222
X1.137Y-1.4281
X1.1756Y-4.3517
X1.4177Y-4.0108
X1.4472Y-1.7935
X1.5457Y-4.171
X1.6157Y-4.1053
X1.687Y-3.7273
X1.7756Y-4.658
X1.776Y-4.8624
X1.8161Y-4.2139
X1.9331Y-1.4824
X1.9811Y-4.2131
X2.0638Y-4.0789
X2.1512Y-4.2167
X2.2496Y-4.0809
X2.2776Y-4.4986
X2.2815Y-4.3624
X2.3402Y-4.2226
X2.3957Y-3.2939
X2.4598Y-3.3639
X2.6012Y-2.2423
X2.7126Y-4.7978
X3.2118Y-2.8159
X3.298Y-4.5726
X3.3862Y-4.5057
X3.6661Y-4.3096
X4.161Y-2.832
X4.1622Y-2.9159
X4.1929Y-1.9155
X4.2154Y-2.3332
X4.6004Y-1.6856
T5
X0.88Y-3.6092
X0.88Y-3.81
T6
X0.9158Y-0.9433
X0.9158Y-1.0433
X0.9158Y-1.1433
X0.9158Y-1.2433
X4.64Y-3.54
X4.64Y-3.64
X4.64Y-3.74
X4.64Y-3.84
X4.64Y-3.94
X4.64Y-4.04
X4.64Y-4.14
X4.7122Y-1.5213
X4.7122Y-1.6213
T7
X0.9972Y-4.5386
X0.9972Y-4.6567
X1.1154Y-4.5386
X1.1154Y-4.6567
X1.4811Y-4.5382
X1.4811Y-4.6563
X1.5992Y-4.5382
X1.5992Y-4.6563
X1.9524Y-4.5299
X1.9524Y-4.648
X2.0705Y-4.5299
X2.0705Y-4.648
X2.414Y-4.5361
X2.414Y-4.6543
X2.5321Y-4.5361
X2.5321Y-4.6543
X2.8665Y-1.1665
X2.8967Y-4.5417
X2.8967Y-4.6599
X2.9846Y-1.1665
X3.0148Y-4.5417
X3.0148Y-4.6599
X3.133Y-4.5417
X3.133Y-4.6599
X3.4717Y-4.5401
X3.4717Y-4.6583
X3.5898Y-4.5401
X3.5898Y-4.6583
X3.9425Y-4.5423
X3.9425Y-4.6605
X4.0606Y-4.5423
X4.0606Y-4.6605
X4.3118Y-1.8719
X4.3118Y-1.99
X4.3118Y-2.1081
X4.3118Y-2.4409
X4.3118Y-2.5591
X4.3118Y-2.8928
X4.3118Y-3.0109
X4.3118Y-3.1291
X4.3118Y-3.2472
X4.4169Y-4.5419
X4.4169Y-4.66
X4.4299Y-1.8719
X4.4299Y-1.99
X4.4299Y-2.1081
X4.4299Y-2.4409
X4.4299Y-2.5591
X4.4299Y-2.8928
X4.4299Y-3.0109
X4.4299Y-3.1291
X4.4299Y-3.2472
X4.535Y-4.5419
X4.535Y-4.66
T8
X1.152Y-3.911
X1.6059Y-3.6876
X2.2783Y-3.9754
X2.2937Y-3.3713
X2.7201Y-1.9265
X2.8866Y-2.0882
X3.0142Y-2.0724
X3.45Y-1.08
X3.45Y-1.18
X3.45Y-1.28
X3.45Y-1.38
X3.45Y-1.48
X3.45Y-1.58
X3.45Y-1.68
X3.45Y-1.78
X3.45Y-1.88
X3.45Y-1.98
X3.45Y-2.08
X3.45Y-2.18
X3.45Y-2.28
X3.45Y-2.38
X3.45Y-2.48
X3.45Y-2.58
X3.45Y-2.68
X3.45Y-2.78
X3.45Y-2.88
X3.45Y-2.98
X3.45Y-3.08
X3.45Y-3.18
X3.45Y-3.28
X3.45Y-3.38
X3.55Y-2.88
X3.578Y-4.3159
X3.7724Y-3.4663
X3.9209Y-2.7832
X4.05Y-1.08
X4.05Y-1.18
X4.05Y-1.28
X4.05Y-1.38
X4.05Y-1.48
X4.05Y-1.58
X4.05Y-1.68
X4.05Y-1.78
X4.05Y-1.88
X4.05Y-1.98
X4.05Y-2.08
X4.05Y-2.18
X4.05Y-2.28
X4.05Y-2.38
X4.05Y-2.48
X4.05Y-2.58
X4.05Y-2.68
X4.05Y-2.78
X4.05Y-2.88
X4.05Y-2.98
X4.05Y-3.08
X4.05Y-3.18
X4.05Y-3.28
X4.05Y-3.38
T9
X2.9354Y-1.6143
X2.9354Y-1.8111
T10
X1.3588Y-1.639
X1.3618Y-3.2538
X1.3619Y-2.6252
X1.3619Y-2.9398
X1.3631Y-1.9535
X1.5753Y-1.639
X1.5783Y-3.2538
X1.5784Y-2.6252
X1.5784Y-2.9398
X1.5796Y-1.9535
T11
X1.881Y-2.115
X1.881Y-2.3
X1.881Y-2.485
X1.885Y-1.11
X1.885Y-1.299
X2.07Y-1.11
X2.07Y-1.299
X2.07Y-2.115
X2.07Y-2.3
X2.07Y-2.485
X2.255Y-1.11
X2.255Y-1.299
T12
X1.3319Y-1.4513
X1.712Y-1.7872
X1.728Y-1.3504
X2.1795Y-3.2488
X2.3754Y-2.1127
X2.4949Y-1.4606
X2.7254Y-2.5927
X2.9224Y-2.4929
T13
X1.5374Y-0.9549
X1.5374Y-4.3534
X4.6312Y-0.9549
X4.6312Y-4.3534
T0
M30
