G04 #@! TF.FileFunction,Soldermask,Top*
%FSLAX46Y46*%
G04 Gerber Fmt 4.6, Leading zero omitted, Abs format (unit mm)*
G04 Created by KiCad (PCBNEW 4.0.4-stable) date 03/19/18 23:17:59*
%MOMM*%
%LPD*%
G01*
G04 APERTURE LIST*
%ADD10C,0.100000*%
%ADD11C,0.381000*%
%ADD12R,1.650000X1.900000*%
%ADD13R,0.680000X0.930000*%
%ADD14R,0.930000X0.680000*%
%ADD15R,1.670000X3.320000*%
%ADD16R,3.830000X2.050000*%
%ADD17C,5.400000*%
G04 APERTURE END LIST*
D10*
D11*
G36*
X98304160Y-98470000D02*
X98680000Y-98470000D01*
X98680000Y-99076821D01*
X98304160Y-99076821D01*
X98304160Y-98470000D01*
G37*
X98304160Y-98470000D02*
X98680000Y-98470000D01*
X98680000Y-99076821D01*
X98304160Y-99076821D01*
X98304160Y-98470000D01*
G36*
X98218560Y-99541441D02*
X98218560Y-99167816D01*
X98827820Y-99167816D01*
X98827820Y-99541441D01*
X98218560Y-99541441D01*
G37*
X98218560Y-99541441D02*
X98218560Y-99167816D01*
X98827820Y-99167816D01*
X98827820Y-99541441D01*
X98218560Y-99541441D01*
G36*
X98680000Y-101536240D02*
X98303100Y-101536240D01*
X98303100Y-100920000D01*
X98680000Y-100920000D01*
X98680000Y-101536240D01*
G37*
X98680000Y-101536240D02*
X98303100Y-101536240D01*
X98303100Y-100920000D01*
X98680000Y-100920000D01*
X98680000Y-101536240D01*
G36*
X101771100Y-99171098D02*
X101771100Y-99538108D01*
X101161890Y-99538108D01*
X101161890Y-99171098D01*
X101771100Y-99171098D01*
G37*
X101771100Y-99171098D02*
X101771100Y-99538108D01*
X101161890Y-99538108D01*
X101161890Y-99171098D01*
X101771100Y-99171098D01*
G36*
X98736430Y-98470000D02*
X99110000Y-98470000D01*
X99110000Y-99077386D01*
X98736430Y-99077386D01*
X98736430Y-98470000D01*
G37*
X98736430Y-98470000D02*
X99110000Y-98470000D01*
X99110000Y-99077386D01*
X98736430Y-99077386D01*
X98736430Y-98470000D01*
G36*
X99167697Y-98470000D02*
X99540000Y-98470000D01*
X99540000Y-99077448D01*
X99167697Y-99077448D01*
X99167697Y-98470000D01*
G37*
X99167697Y-98470000D02*
X99540000Y-98470000D01*
X99540000Y-99077448D01*
X99167697Y-99077448D01*
X99167697Y-98470000D01*
G36*
X99598051Y-98470000D02*
X99970000Y-98470000D01*
X99970000Y-99075520D01*
X99598051Y-99075520D01*
X99598051Y-98470000D01*
G37*
X99598051Y-98470000D02*
X99970000Y-98470000D01*
X99970000Y-99075520D01*
X99598051Y-99075520D01*
X99598051Y-98470000D01*
G36*
X100461817Y-98470000D02*
X100830000Y-98470000D01*
X100830000Y-99076364D01*
X100461817Y-99076364D01*
X100461817Y-98470000D01*
G37*
X100461817Y-98470000D02*
X100830000Y-98470000D01*
X100830000Y-99076364D01*
X100461817Y-99076364D01*
X100461817Y-98470000D01*
G36*
X100030102Y-98470000D02*
X100400000Y-98470000D01*
X100400000Y-99076861D01*
X100030102Y-99076861D01*
X100030102Y-98470000D01*
G37*
X100030102Y-98470000D02*
X100400000Y-98470000D01*
X100400000Y-99076861D01*
X100030102Y-99076861D01*
X100030102Y-98470000D01*
G36*
X101323580Y-98470000D02*
X101690000Y-98470000D01*
X101690000Y-99077508D01*
X101323580Y-99077508D01*
X101323580Y-98470000D01*
G37*
X101323580Y-98470000D02*
X101690000Y-98470000D01*
X101690000Y-99077508D01*
X101323580Y-99077508D01*
X101323580Y-98470000D01*
G36*
X100893810Y-98470000D02*
X101260000Y-98470000D01*
X101260000Y-99076061D01*
X100893810Y-99076061D01*
X100893810Y-98470000D01*
G37*
X100893810Y-98470000D02*
X101260000Y-98470000D01*
X101260000Y-99076061D01*
X100893810Y-99076061D01*
X100893810Y-98470000D01*
G36*
X101772880Y-99602877D02*
X101772880Y-99967500D01*
X101162500Y-99967500D01*
X101162500Y-99602877D01*
X101772880Y-99602877D01*
G37*
X101772880Y-99602877D02*
X101772880Y-99967500D01*
X101162500Y-99967500D01*
X101162500Y-99602877D01*
X101772880Y-99602877D01*
G36*
X101772090Y-100032094D02*
X101772090Y-100399115D01*
X101160890Y-100399115D01*
X101160890Y-100032094D01*
X101772090Y-100032094D01*
G37*
X101772090Y-100032094D02*
X101772090Y-100399115D01*
X101160890Y-100399115D01*
X101160890Y-100032094D01*
X101772090Y-100032094D01*
G36*
X101773730Y-100463727D02*
X101773730Y-100829451D01*
X101160550Y-100829451D01*
X101160550Y-100463727D01*
X101773730Y-100463727D01*
G37*
X101773730Y-100463727D02*
X101773730Y-100829451D01*
X101160550Y-100829451D01*
X101160550Y-100463727D01*
X101773730Y-100463727D01*
G36*
X98217230Y-99972771D02*
X98217230Y-99597514D01*
X98827510Y-99597514D01*
X98827510Y-99972771D01*
X98217230Y-99972771D01*
G37*
X98217230Y-99972771D02*
X98217230Y-99597514D01*
X98827510Y-99597514D01*
X98827510Y-99972771D01*
X98217230Y-99972771D01*
G36*
X98218750Y-100401248D02*
X98218750Y-100029346D01*
X98829350Y-100029346D01*
X98829350Y-100401248D01*
X98218750Y-100401248D01*
G37*
X98218750Y-100401248D02*
X98218750Y-100029346D01*
X98829350Y-100029346D01*
X98829350Y-100401248D01*
X98218750Y-100401248D01*
G36*
X98214780Y-100835218D02*
X98214780Y-100458580D01*
X98828580Y-100458580D01*
X98828580Y-100835218D01*
X98214780Y-100835218D01*
G37*
X98214780Y-100835218D02*
X98214780Y-100458580D01*
X98828580Y-100458580D01*
X98828580Y-100835218D01*
X98214780Y-100835218D01*
G36*
X99110000Y-101532670D02*
X98737810Y-101532670D01*
X98737810Y-100920000D01*
X99110000Y-100920000D01*
X99110000Y-101532670D01*
G37*
X99110000Y-101532670D02*
X98737810Y-101532670D01*
X98737810Y-100920000D01*
X99110000Y-100920000D01*
X99110000Y-101532670D01*
G36*
X99540000Y-101532000D02*
X99168919Y-101532000D01*
X99168919Y-100920000D01*
X99540000Y-100920000D01*
X99540000Y-101532000D01*
G37*
X99540000Y-101532000D02*
X99168919Y-101532000D01*
X99168919Y-100920000D01*
X99540000Y-100920000D01*
X99540000Y-101532000D01*
G36*
X99970000Y-101533850D02*
X99598993Y-101533850D01*
X99598993Y-100920000D01*
X99970000Y-100920000D01*
X99970000Y-101533850D01*
G37*
X99970000Y-101533850D02*
X99598993Y-101533850D01*
X99598993Y-100920000D01*
X99970000Y-100920000D01*
X99970000Y-101533850D01*
G36*
X100830000Y-101534270D02*
X100461285Y-101534270D01*
X100461285Y-100920000D01*
X100830000Y-100920000D01*
X100830000Y-101534270D01*
G37*
X100830000Y-101534270D02*
X100461285Y-101534270D01*
X100461285Y-100920000D01*
X100830000Y-100920000D01*
X100830000Y-101534270D01*
G36*
X100400000Y-101533970D02*
X100030078Y-101533970D01*
X100030078Y-100920000D01*
X100400000Y-100920000D01*
X100400000Y-101533970D01*
G37*
X100400000Y-101533970D02*
X100030078Y-101533970D01*
X100030078Y-100920000D01*
X100400000Y-100920000D01*
X100400000Y-101533970D01*
G36*
X101690000Y-101533650D02*
X101323140Y-101533650D01*
X101323140Y-100920000D01*
X101690000Y-100920000D01*
X101690000Y-101533650D01*
G37*
X101690000Y-101533650D02*
X101323140Y-101533650D01*
X101323140Y-100920000D01*
X101690000Y-100920000D01*
X101690000Y-101533650D01*
G36*
X101260000Y-101534210D02*
X100892450Y-101534210D01*
X100892450Y-100920000D01*
X101260000Y-100920000D01*
X101260000Y-101534210D01*
G37*
X101260000Y-101534210D02*
X100892450Y-101534210D01*
X100892450Y-100920000D01*
X101260000Y-100920000D01*
X101260000Y-101534210D01*
D12*
X102500000Y-96830000D03*
X102500000Y-94330000D03*
X97510000Y-96830000D03*
X97510000Y-94330000D03*
X100030000Y-96850000D03*
X100030000Y-94350000D03*
X95040000Y-96840000D03*
X95040000Y-94340000D03*
D13*
X101505000Y-98775000D03*
D14*
X101470000Y-99355000D03*
X101470000Y-99785000D03*
X101470000Y-100215000D03*
X101470000Y-100645000D03*
D13*
X101505000Y-101225000D03*
X101075000Y-101225000D03*
X100645000Y-101225000D03*
X100215000Y-101225000D03*
X99785000Y-101225000D03*
X99355000Y-101225000D03*
X98925000Y-101225000D03*
X98495000Y-101225000D03*
D14*
X98530000Y-100645000D03*
X98530000Y-100215000D03*
X98530000Y-99785000D03*
X98530000Y-99355000D03*
D13*
X98495000Y-98775000D03*
X98925000Y-98775000D03*
X99355000Y-98775000D03*
X99785000Y-98775000D03*
X100215000Y-98775000D03*
X100645000Y-98775000D03*
X101075000Y-98775000D03*
D15*
X104440000Y-108730000D03*
X101440000Y-108730000D03*
X98440000Y-108730000D03*
X95440000Y-108730000D03*
X104440000Y-104100000D03*
X101440000Y-104100000D03*
X98440000Y-104100000D03*
X95440000Y-104100000D03*
D16*
X91545000Y-114200000D03*
X108335000Y-114200000D03*
D17*
X110000000Y-100000000D03*
X90000000Y-100000000D03*
M02*
